<?xml version="1.0" encoding="utf-8"?>
<!-- Generator: Adobe Illustrator 25.0.1, SVG Export Plug-In . SVG Version: 6.00 Build 0)  -->
<svg version="1.1" id="圖層_1" xmlns="http://www.w3.org/2000/svg" xmlns:xlink="http://www.w3.org/1999/xlink" x="0px" y="0px"
	 viewBox="0 0 64 64" style="enable-background:new 0 0 64 64;" xml:space="preserve">
<style type="text/css">
	.st0{fill:#00CF2E;}
	.st1{fill:#FFFFFF;}
	.st2{fill-rule:evenodd;clip-rule:evenodd;fill:#1777F2;}
	.st3{fill:#4280EF;}
	.st4{fill:#34A353;}
	.st5{fill:#F6B704;}
	.st6{fill:#E54335;}
</style>
<path class="st2" d="M55.6,0.9c4.2,0,7.6,3.4,7.6,7.6v47.1c0,4.2-3.4,7.6-7.6,7.6h-13V39.8h8.1l1.5-10.1h-9.7v-6.5
	c0-2.8,1.3-5.4,5.7-5.4h4.4V9.2c0,0-4-0.7-7.8-0.7c-8,0-13.1,4.8-13.1,13.5v7.7h-8.8v10.1h8.8v23.5H8.4c-4.2,0-7.6-3.4-7.6-7.6V8.5
	c0-4.2,3.4-7.6,7.6-7.6L55.6,0.9L55.6,0.9z"/>
</svg>
