<?xml version="1.0" encoding="utf-8"?>
<!-- Generator: Adobe Illustrator 25.0.1, SVG Export Plug-In . SVG Version: 6.00 Build 0)  -->
<svg version="1.1" id="圖層_1" xmlns="http://www.w3.org/2000/svg" xmlns:xlink="http://www.w3.org/1999/xlink" x="0px" y="0px"
	 viewBox="0 0 64 64" style="enable-background:new 0 0 64 64;" xml:space="preserve">
<style type="text/css">
	.st0{fill:#00CF2E;}
	.st1{fill:#FFFFFF;}
	.st2{fill-rule:evenodd;clip-rule:evenodd;fill:#1777F2;}
	.st3{fill:#4280EF;}
	.st4{fill:#34A353;}
	.st5{fill:#F6B704;}
	.st6{fill:#E54335;}
</style>
<g>
	<path class="st3" d="M62.4,32.7c0-2.1-0.2-4.3-0.5-6.3H32.5v12h16.8c-0.7,3.9-2.9,7.3-6.2,9.4l10.1,7.8
		C59,50.2,62.4,42.2,62.4,32.7L62.4,32.7z"/>
	<path class="st4" d="M32.5,63.2c8.4,0,15.5-2.8,20.7-7.5l-10.1-7.7c-2.8,1.9-6.4,3-10.6,3c-8.2,0-15-5.5-17.5-12.8L4.6,46
		C9.9,56.5,20.7,63.2,32.5,63.2z"/>
	<path class="st5" d="M14.9,38c-1.3-3.9-1.3-8.1,0-12L4.6,18c-4.4,8.8-4.4,19.2,0,28L14.9,38z"/>
	<path class="st6" d="M32.5,13.2c4.4-0.1,8.8,1.6,12,4.7l8.9-9c-5.6-5.3-13.1-8.2-20.9-8.1C20.7,0.8,9.9,7.5,4.6,18l10.3,8
		C17.5,18.6,24.3,13.2,32.5,13.2z"/>
</g>
</svg>
