<?xml version="1.0" encoding="utf-8"?>
<!-- Generator: Adobe Illustrator 25.0.1, SVG Export Plug-In . SVG Version: 6.00 Build 0)  -->
<svg version="1.1" id="圖層_1" xmlns="http://www.w3.org/2000/svg" xmlns:xlink="http://www.w3.org/1999/xlink" x="0px" y="0px"
	 viewBox="0 0 64 64" style="enable-background:new 0 0 64 64;" xml:space="preserve">
<style type="text/css">
	.st0{fill:#00CF2E;}
	.st1{fill:#FFFFFF;}
	.st2{fill-rule:evenodd;clip-rule:evenodd;fill:#1777F2;}
	.st3{fill:#4280EF;}
	.st4{fill:#34A353;}
	.st5{fill:#F6B704;}
	.st6{fill:#E54335;}
</style>
<g id="_5-line_1_">
	<path class="st0" d="M52.3,63.2H11.7c-6,0-10.9-4.9-10.9-10.9V11.7c0-6,4.9-10.9,10.9-10.9h40.5c6,0,10.9,4.9,10.9,10.9v40.5
		C63.2,58.3,58.3,63.2,52.3,63.2z"/>
	<path class="st1" d="M55.8,28.5c0-8.6-10.1-17.9-23.4-17.9C19.5,10.6,9,18.2,9,28.5c0,9.5,8.2,17.4,19.7,18.6
		c0.7,0.1,1.4,0.4,1.7,1c0.3,0.4,0.4,0.9,0.4,1.5c0,1.1-0.1,2.1-0.4,3.1c-0.1,0.4,0.2,0.8,0.6,0.9c0.2,0,0.3,0,0.5,0
		C37.1,51.1,55.8,41.1,55.8,28.5z"/>
	<path class="st0" d="M23.8,32.8h-3.5v-8.2c0-0.6-0.5-1.2-1.2-1.2c-0.6,0-1.2,0.5-1.2,1.2c0,0,0,0,0,0v9.4c0,0.6,0.5,1.2,1.2,1.2h0
		h4.7c0.6,0,1.2-0.5,1.2-1.2S24.5,32.8,23.8,32.8z"/>
	<path class="st0" d="M26.9,23.4c-0.6,0-1.2,0.5-1.2,1.2v0v9.4c0,0.6,0.5,1.2,1.2,1.2c0.6,0,1.2-0.5,1.2-1.2v-9.4
		C28.1,23.9,27.6,23.4,26.9,23.4z"/>
	<path class="st0" d="M37.8,23.4c-0.6,0-1.2,0.5-1.2,1.2v0v5.8l-4.9-6.5c-0.4-0.5-1.1-0.6-1.6-0.2c-0.3,0.2-0.5,0.6-0.5,0.9v9.4
		c0.1,0.6,0.7,1.1,1.4,0.9c0.5-0.1,0.8-0.5,0.9-0.9v-5.8l4.9,6.5c0.2,0.3,0.6,0.5,1,0.5c0.1,0,0.3,0,0.4-0.1
		c0.5-0.2,0.8-0.6,0.8-1.1v-9.4C39,23.9,38.5,23.4,37.8,23.4z"/>
	<path class="st0" d="M46.4,30.4c0.6,0,1.2-0.5,1.2-1.2c0-0.6-0.5-1.2-1.2-1.2c0,0,0,0,0,0h-3.5v-2.3h3.5c0.6,0,1.2-0.5,1.2-1.2
		c0-0.6-0.5-1.2-1.2-1.2c0,0,0,0,0,0h-4.7c-0.6,0-1.2,0.5-1.2,1.2v0v9.4c0,0.6,0.5,1.2,1.2,1.2l0,0h4.7c0.6,0,1.2-0.5,1.2-1.2
		s-0.5-1.2-1.2-1.2h-3.5v-2.3H46.4z"/>
</g>
</svg>
